<mxfile host="app.diagrams.net" modified="2023-05-20T08:15:34.885Z" agent="Mozilla/5.0 (Windows NT 10.0; Win64; x64) AppleWebKit/537.36 (KHTML, like Gecko) Chrome/113.0.0.0 Safari/537.36" etag="SMLgjdcbQ47KEKoHQv5o" version="21.3.2" type="device">
  <diagram name="Page-1" id="YmduDc3zqCz7oEK_tIpx">
    <mxGraphModel dx="1434" dy="756" grid="1" gridSize="10" guides="1" tooltips="1" connect="1" arrows="1" fold="1" page="1" pageScale="1" pageWidth="827" pageHeight="1169" math="0" shadow="0">
      <root>
        <mxCell id="0" />
        <mxCell id="1" parent="0" />
        <mxCell id="5tFdcG-9HEL2fGuyddfy-4" value="" style="ellipse;html=1;shape=endState;fillColor=#000000;strokeColor=#ff0000;" vertex="1" parent="1">
          <mxGeometry x="780" y="585" width="30" height="30" as="geometry" />
        </mxCell>
        <mxCell id="5tFdcG-9HEL2fGuyddfy-5" value="login" style="html=1;verticalAlign=bottom;startArrow=circle;startFill=1;endArrow=open;startSize=6;endSize=8;edgeStyle=elbowEdgeStyle;elbow=vertical;curved=0;rounded=0;" edge="1" parent="1" target="5tFdcG-9HEL2fGuyddfy-6">
          <mxGeometry width="80" relative="1" as="geometry">
            <mxPoint x="40" y="30" as="sourcePoint" />
            <mxPoint x="200" y="60" as="targetPoint" />
            <Array as="points">
              <mxPoint x="100" y="60" />
            </Array>
          </mxGeometry>
        </mxCell>
        <mxCell id="5tFdcG-9HEL2fGuyddfy-6" value="take picture of number plate" style="rounded=1;whiteSpace=wrap;html=1;absoluteArcSize=1;arcSize=14;strokeWidth=2;" vertex="1" parent="1">
          <mxGeometry x="150" y="10" width="100" height="100" as="geometry" />
        </mxCell>
        <mxCell id="5tFdcG-9HEL2fGuyddfy-8" value="" style="endArrow=classic;html=1;rounded=0;exitX=0.5;exitY=1;exitDx=0;exitDy=0;" edge="1" parent="1" source="5tFdcG-9HEL2fGuyddfy-6" target="5tFdcG-9HEL2fGuyddfy-9">
          <mxGeometry width="50" height="50" relative="1" as="geometry">
            <mxPoint x="390" y="360" as="sourcePoint" />
            <mxPoint x="200" y="220" as="targetPoint" />
          </mxGeometry>
        </mxCell>
        <mxCell id="5tFdcG-9HEL2fGuyddfy-9" value="pass to&amp;nbsp;&lt;br&gt;number recognition AI" style="shape=ext;double=1;rounded=1;whiteSpace=wrap;html=1;" vertex="1" parent="1">
          <mxGeometry x="140" y="180" width="120" height="80" as="geometry" />
        </mxCell>
        <mxCell id="5tFdcG-9HEL2fGuyddfy-10" value="" style="endArrow=classic;html=1;rounded=0;exitX=0.5;exitY=1;exitDx=0;exitDy=0;" edge="1" parent="1" source="5tFdcG-9HEL2fGuyddfy-9" target="5tFdcG-9HEL2fGuyddfy-11">
          <mxGeometry width="50" height="50" relative="1" as="geometry">
            <mxPoint x="390" y="360" as="sourcePoint" />
            <mxPoint x="200" y="320" as="targetPoint" />
          </mxGeometry>
        </mxCell>
        <mxCell id="5tFdcG-9HEL2fGuyddfy-11" value="return massage&lt;br&gt;that number is valid or not" style="shape=ext;double=1;rounded=1;whiteSpace=wrap;html=1;" vertex="1" parent="1">
          <mxGeometry x="140" y="280" width="120" height="80" as="geometry" />
        </mxCell>
        <mxCell id="5tFdcG-9HEL2fGuyddfy-13" value="" style="endArrow=classic;html=1;rounded=0;exitX=1;exitY=0.5;exitDx=0;exitDy=0;" edge="1" parent="1" source="5tFdcG-9HEL2fGuyddfy-11">
          <mxGeometry width="50" height="50" relative="1" as="geometry">
            <mxPoint x="230" y="390" as="sourcePoint" />
            <mxPoint x="413" y="320" as="targetPoint" />
            <Array as="points">
              <mxPoint x="340" y="320" />
            </Array>
          </mxGeometry>
        </mxCell>
        <mxCell id="5tFdcG-9HEL2fGuyddfy-14" value="if number is in valid" style="endArrow=classic;html=1;rounded=0;exitX=0.5;exitY=0;exitDx=0;exitDy=0;exitPerimeter=0;" edge="1" parent="1" source="5tFdcG-9HEL2fGuyddfy-16">
          <mxGeometry width="50" height="50" relative="1" as="geometry">
            <mxPoint x="416" y="280" as="sourcePoint" />
            <mxPoint x="580" y="270" as="targetPoint" />
          </mxGeometry>
        </mxCell>
        <mxCell id="5tFdcG-9HEL2fGuyddfy-15" value="if numberisvalid" style="endArrow=classic;html=1;rounded=0;exitX=0.5;exitY=1;exitDx=0;exitDy=0;exitPerimeter=0;" edge="1" parent="1" source="5tFdcG-9HEL2fGuyddfy-16" target="5tFdcG-9HEL2fGuyddfy-18">
          <mxGeometry x="0.0385" y="20" width="50" height="50" relative="1" as="geometry">
            <mxPoint x="419" y="400" as="sourcePoint" />
            <mxPoint x="580" y="370" as="targetPoint" />
            <mxPoint as="offset" />
          </mxGeometry>
        </mxCell>
        <mxCell id="5tFdcG-9HEL2fGuyddfy-16" value="validation" style="strokeWidth=2;html=1;shape=mxgraph.flowchart.decision;whiteSpace=wrap;" vertex="1" parent="1">
          <mxGeometry x="380" y="270" width="100" height="100" as="geometry" />
        </mxCell>
        <mxCell id="5tFdcG-9HEL2fGuyddfy-17" value="don&#39;t allow&lt;br&gt;for parking" style="shape=ext;double=1;rounded=1;whiteSpace=wrap;html=1;" vertex="1" parent="1">
          <mxGeometry x="580" y="230" width="120" height="80" as="geometry" />
        </mxCell>
        <mxCell id="5tFdcG-9HEL2fGuyddfy-18" value="allow for parking" style="shape=ext;double=1;rounded=1;whiteSpace=wrap;html=1;" vertex="1" parent="1">
          <mxGeometry x="580" y="330" width="120" height="80" as="geometry" />
        </mxCell>
        <mxCell id="5tFdcG-9HEL2fGuyddfy-20" value="" style="edgeStyle=segmentEdgeStyle;endArrow=classic;html=1;curved=0;rounded=0;endSize=8;startSize=8;" edge="1" parent="1" target="5tFdcG-9HEL2fGuyddfy-4">
          <mxGeometry width="50" height="50" relative="1" as="geometry">
            <mxPoint x="700" y="280" as="sourcePoint" />
            <mxPoint x="750" y="230" as="targetPoint" />
            <Array as="points">
              <mxPoint x="806" y="280" />
            </Array>
          </mxGeometry>
        </mxCell>
        <mxCell id="5tFdcG-9HEL2fGuyddfy-21" value="" style="edgeStyle=segmentEdgeStyle;endArrow=classic;html=1;curved=0;rounded=0;endSize=8;startSize=8;" edge="1" parent="1" target="5tFdcG-9HEL2fGuyddfy-4">
          <mxGeometry width="50" height="50" relative="1" as="geometry">
            <mxPoint x="700" y="360" as="sourcePoint" />
            <mxPoint x="750" y="310" as="targetPoint" />
          </mxGeometry>
        </mxCell>
      </root>
    </mxGraphModel>
  </diagram>
</mxfile>
